<svg id="ef38dE1KwCy1" xmlns="http://www.w3.org/2000/svg" xmlns:xlink="http://www.w3.org/1999/xlink" viewBox="0 0 350 350" shape-rendering="geometricPrecision" text-rendering="geometricPrecision"><g id="ef38dE1KwCy2" transform="matrix(1 0 0 1 0 -700)"><g id="ef38dE1KwCy3" transform="matrix(0.48448 0 0 0.48448 -705.99 941.17)"><rect id="ef38dE1KwCy4" width="681.143" height="413" rx="25" ry="25" transform="matrix(1 0 0 1 1477.85 -477.151)" fill="none" stroke="rgb(255,127,0)" stroke-width="25"/><rect id="ef38dE1KwCy5" width="309.61" height="124" rx="25" ry="25" transform="matrix(1 0 0 1 1663.62 -23.0556)" fill="none" stroke="rgb(255,255,255)" stroke-width="25"/><rect id="ef38dE1KwCy6" width="619.221" height="62" rx="25" ry="25" transform="matrix(1 0 0 1 1508.81 142.07)" fill="none" stroke="rgb(0,255,127)" stroke-width="25"/><rect id="ef38dE1KwCy7" width="103.203" height="21" rx="10" ry="10" transform="matrix(1 0 0 1 1766.82 28.5461)" fill="none" stroke="rgb(0,0,255)" stroke-width="25"/></g></g><g id="ef38dE1KwCy8" transform="matrix(7 0 0 7 280.063 -249.672986)"><path id="ef38dE1KwCy9" d="M-3.264,51.509C-3.264,50.719,-3.334,49.969,-3.454,49.239L-14.754,49.239L-14.754,53.749L-8.284,53.749C-8.574,55.229,-9.424,56.479,-10.684,57.329L-10.684,60.329L-6.824,60.329C-4.564,58.239,-3.264,55.159,-3.264,51.509Z" fill="rgb(66,133,244)" stroke="none" stroke-width="1"/><path id="ef38dE1KwCy10" d="M-14.754,63.239C-11.514,63.239,-8.804,62.159,-6.824,60.329L-10.684,57.329C-11.764,58.049,-13.134,58.489,-14.754,58.489C-17.884,58.489,-20.534,56.379,-21.484,53.529L-25.464,53.529L-25.464,56.619C-23.494,60.539,-19.444,63.239,-14.754,63.239Z" fill="rgb(52,168,83)" stroke="none" stroke-width="1"/><path id="ef38dE1KwCy11" d="M-21.484,53.529C-21.734,52.809,-21.864,52.039,-21.864,51.239C-21.864,50.439,-21.724,49.669,-21.484,48.949L-21.484,45.859L-25.464,45.859C-26.284,47.479,-26.754,49.299,-26.754,51.239C-26.754,53.179,-26.284,54.999,-25.464,56.619L-21.484,53.529Z" fill="rgb(251,188,5)" stroke="none" stroke-width="1"/><path id="ef38dE1KwCy12" d="M-14.754,43.989C-12.984,43.989,-11.404,44.599,-10.154,45.789L-6.734,42.369C-8.804,40.429,-11.514,39.239,-14.754,39.239C-19.444,39.239,-23.494,41.939,-25.464,45.859L-21.484,48.949C-20.534,46.099,-17.884,43.989,-14.754,43.989Z" fill="rgb(234,67,53)" stroke="none" stroke-width="1"/></g></svg>
